<?xml version="1.0" standalone="no"?>
<!DOCTYPE svg PUBLIC "-//W3C//DTD SVG 20010904//EN"
 "http://www.w3.org/TR/2001/REC-SVG-20010904/DTD/svg10.dtd">
<svg version="1.0" xmlns="http://www.w3.org/2000/svg"
 width="256.000000pt" height="256.000000pt" viewBox="0 0 256.000000 256.000000"
 preserveAspectRatio="xMidYMid meet">
<metadata>
Created by potrace 1.14, written by Peter Selinger 2001-2017
</metadata>
<g transform="translate(0.000000,256.000000) scale(0.100000,-0.100000)"
fill="#000000" stroke="none">
<path d="M1159 2396 c-2 -2 -24 -7 -49 -10 -402 -54 -763 -362 -894 -761 -41
-127 -55 -233 -50 -385 4 -146 6 -162 22 -200 5 -14 6 -29 2 -34 -5 -5 -2 -15
6 -23 8 -8 14 -23 14 -34 0 -10 0 -21 0 -24 1 -2 14 -33 30 -67 17 -35 30 -69
30 -75 0 -7 5 -13 10 -13 6 0 10 -4 10 -9 0 -10 77 -138 95 -157 34 -37 54
-64 48 -64 -3 0 3 -8 14 -18 80 -69 93 -83 91 -94 -2 -7 3 -12 11 -10 20 4 41
-17 34 -36 -4 -15 -3 -15 7 -2 9 11 13 12 17 3 2 -7 11 -13 19 -13 8 0 14 -4
14 -10 0 -5 7 -10 15 -10 8 0 15 -4 15 -10 0 -5 7 -10 15 -10 7 0 18 -7 23
-16 5 -9 12 -15 15 -15 18 3 26 -1 47 -19 13 -12 30 -18 37 -16 7 3 13 1 13
-4 0 -6 7 -10 15 -10 8 0 15 -4 15 -8 0 -4 12 -9 28 -10 15 -1 28 -7 30 -12 2
-6 15 -10 28 -10 18 0 23 -4 18 -12 -6 -10 -4 -10 8 0 11 9 18 10 23 2 3 -5
19 -10 36 -10 16 0 29 -3 29 -7 0 -5 21 -9 47 -11 25 -1 52 -7 59 -13 8 -7 14
-7 19 1 5 8 10 8 20 0 9 -8 15 -8 20 0 3 6 11 7 17 4 19 -12 93 -12 100 0 5 8
8 7 8 -2 0 -8 5 -10 12 -6 12 7 45 12 126 16 17 1 32 5 32 9 0 4 12 9 28 12
71 13 92 20 167 50 44 17 82 34 85 38 3 3 32 21 65 39 61 34 178 123 204 154
11 13 16 14 23 4 7 -10 8 -10 7 2 -1 8 1 23 6 33 6 14 10 15 21 6 12 -9 13 -9
9 3 -3 8 2 24 12 35 10 12 25 31 33 43 8 12 23 31 33 42 9 12 17 25 17 31 0 5
7 7 15 3 8 -3 15 -1 15 3 0 5 -4 11 -9 13 -14 4 44 84 58 80 7 -1 10 2 6 8 -3
6 -11 8 -16 4 -5 -3 -1 10 8 29 10 19 21 33 25 31 3 -2 4 6 0 18 -4 18 -2 20
14 14 14 -5 16 -4 7 5 -9 8 -8 21 3 53 37 103 49 191 48 346 0 104 -8 215 -14
215 -1 0 -3 11 -6 25 -17 102 -93 276 -172 394 -53 80 -188 218 -259 267 -26
18 -50 35 -53 39 -3 3 -45 27 -95 52 -91 46 -214 92 -276 102 -19 3 -45 8 -59
12 -27 6 -295 15 -301 10z"/>
<path d="M2215 620 c3 -5 8 -10 11 -10 2 0 4 5 4 10 0 6 -5 10 -11 10 -5 0 -7
-4 -4 -10z"/>
<path d="M455 460 c-3 -5 -1 -10 4 -10 6 0 11 5 11 10 0 6 -2 10 -4 10 -3 0
-8 -4 -11 -10z"/>
<path d="M496 442 c-2 -4 -1 -14 4 -22 7 -11 9 -9 7 8 -1 24 -3 26 -11 14z"/>
<path d="M610 339 c0 -5 5 -7 10 -4 6 3 10 8 10 11 0 2 -4 4 -10 4 -5 0 -10
-5 -10 -11z"/>
<path d="M1860 300 c-12 -7 -10 -9 7 -7 12 0 19 5 17 9 -6 10 -6 10 -24 -2z"/>
<path d="M1799 233 c-13 -16 -12 -17 4 -4 16 13 21 21 13 21 -2 0 -10 -8 -17
-17z"/>
<path d="M810 219 c0 -5 5 -7 10 -4 6 3 10 8 10 11 0 2 -4 4 -10 4 -5 0 -10
-5 -10 -11z"/>
<path d="M1155 120 c-3 -5 -1 -10 4 -10 6 0 11 5 11 10 0 6 -2 10 -4 10 -3 0
-8 -4 -11 -10z"/>
<path d="M1190 119 c0 -5 5 -7 10 -4 6 3 10 8 10 11 0 2 -4 4 -10 4 -5 0 -10
-5 -10 -11z"/>
<path d="M1296 118 c3 -5 10 -6 15 -3 13 9 11 12 -6 12 -8 0 -12 -4 -9 -9z"/>
</g>
</svg>
